<mxfile host="Electron" agent="Mozilla/5.0 (Windows NT 10.0; Win64; x64) AppleWebKit/537.36 (KHTML, like Gecko) draw.io/24.7.17 Chrome/128.0.6613.36 Electron/32.0.1 Safari/537.36" version="24.7.17">
  <diagram name="PÃ¡gina-1" id="aFqiMUwFYbUx6vyFFZYL">
    <mxGraphModel dx="1862" dy="626" grid="1" gridSize="10" guides="1" tooltips="1" connect="1" arrows="1" fold="1" page="1" pageScale="1" pageWidth="827" pageHeight="1169" math="0" shadow="0">
      <root>
        <mxCell id="0" />
        <mxCell id="1" parent="0" />
        <mxCell id="pMrsOCq9fY5IHYv4hSgT-13" style="edgeStyle=orthogonalEdgeStyle;rounded=0;orthogonalLoop=1;jettySize=auto;html=1;exitX=0.5;exitY=1;exitDx=0;exitDy=0;entryX=0.5;entryY=0;entryDx=0;entryDy=0;" edge="1" parent="1" source="pMrsOCq9fY5IHYv4hSgT-1" target="pMrsOCq9fY5IHYv4hSgT-6">
          <mxGeometry relative="1" as="geometry" />
        </mxCell>
        <mxCell id="pMrsOCq9fY5IHYv4hSgT-1" value="Cliente&lt;div&gt;&lt;br&gt;&lt;/div&gt;" style="rounded=0;whiteSpace=wrap;html=1;" vertex="1" parent="1">
          <mxGeometry x="-120" y="60" width="120" height="60" as="geometry" />
        </mxCell>
        <mxCell id="pMrsOCq9fY5IHYv4hSgT-16" style="edgeStyle=orthogonalEdgeStyle;rounded=0;orthogonalLoop=1;jettySize=auto;html=1;exitX=0.5;exitY=1;exitDx=0;exitDy=0;entryX=0.5;entryY=0;entryDx=0;entryDy=0;" edge="1" parent="1" source="pMrsOCq9fY5IHYv4hSgT-6">
          <mxGeometry relative="1" as="geometry">
            <mxPoint x="-60" y="270" as="targetPoint" />
          </mxGeometry>
        </mxCell>
        <mxCell id="pMrsOCq9fY5IHYv4hSgT-6" value="Compra vuelos" style="ellipse;whiteSpace=wrap;html=1;aspect=fixed;" vertex="1" parent="1">
          <mxGeometry x="-100" y="170" width="80" height="80" as="geometry" />
        </mxCell>
        <mxCell id="pMrsOCq9fY5IHYv4hSgT-12" style="edgeStyle=orthogonalEdgeStyle;rounded=0;orthogonalLoop=1;jettySize=auto;html=1;exitX=0.5;exitY=1;exitDx=0;exitDy=0;entryX=0.5;entryY=0;entryDx=0;entryDy=0;" edge="1" parent="1" source="pMrsOCq9fY5IHYv4hSgT-9" target="pMrsOCq9fY5IHYv4hSgT-10">
          <mxGeometry relative="1" as="geometry" />
        </mxCell>
        <mxCell id="pMrsOCq9fY5IHYv4hSgT-9" value="&lt;div&gt;Sistema&lt;/div&gt;" style="rounded=0;whiteSpace=wrap;html=1;" vertex="1" parent="1">
          <mxGeometry x="-280" y="60" width="120" height="60" as="geometry" />
        </mxCell>
        <mxCell id="pMrsOCq9fY5IHYv4hSgT-10" value="Registra vuelos" style="ellipse;whiteSpace=wrap;html=1;aspect=fixed;" vertex="1" parent="1">
          <mxGeometry x="-260" y="160" width="80" height="80" as="geometry" />
        </mxCell>
        <mxCell id="pMrsOCq9fY5IHYv4hSgT-15" style="edgeStyle=orthogonalEdgeStyle;rounded=0;orthogonalLoop=1;jettySize=auto;html=1;exitX=0;exitY=0.5;exitDx=0;exitDy=0;entryX=1.004;entryY=0.631;entryDx=0;entryDy=0;entryPerimeter=0;" edge="1" parent="1" source="pMrsOCq9fY5IHYv4hSgT-6" target="pMrsOCq9fY5IHYv4hSgT-10">
          <mxGeometry relative="1" as="geometry" />
        </mxCell>
      </root>
    </mxGraphModel>
  </diagram>
</mxfile>
